<svg xmlns="http://www.w3.org/2000/svg" width="25" height="35" viewBox="0 0 25 35">
    <g fill="none" fill-rule="evenodd">
        <path fill="#00B8FF" d="M16.676 10.557l-2.384-2.341c-.304-.299-.304-.597 0-.896l2.384-2.341c.304-.299.608-.299.912 0l2.384 2.341c.304.299.304.597 0 .896l-2.384 2.341c-.304.299-.608.299-.912 0z"/>
        <path fill="#3EEDFF" d="M12.062 6.027L9.68 3.686c-.304-.299-.304-.597 0-.896L12.062.449c.304-.299.608-.299.912 0l2.384 2.341c.304.299.304.597 0 .896l-2.384 2.34c-.304.3-.608.3-.912 0zM2.84 6.026L.456 3.685c-.304-.299-.304-.598 0-.896L2.84.448c.304-.299.608-.299.912 0l2.383 2.34c.304.3.304.598 0 .897l-2.383 2.34c-.304.3-.608.3-.912 0z"/>
        <path fill="#00B8FF" d="M19.108 15.535L8.236 4.857a.467.467 0 0 0-.659 0L4.942 7.445a.45.45 0 0 0 0 .647l10.872 10.679a4.52 4.52 0 0 1 0 6.474l-3.273 3.216-3.298-3.216a4.528 4.528 0 0 1 0-6.474l1.637-1.608a.45.45 0 0 0 0-.647l-2.636-2.588a.467.467 0 0 0-.659 0L5.95 15.535a9.044 9.044 0 0 0 0 12.946l6.26 6.149a.477.477 0 0 0 .66 0l6.26-6.15a9.043 9.043 0 0 0 2.41-8.841 9.068 9.068 0 0 0-2.43-4.104z"/>
        <path fill="#3EEDFF" d="M21.292 6.029l-2.384-2.342c-.304-.298-.304-.597 0-.895L21.292.45c.304-.298.608-.298.912 0l2.384 2.342c.303.298.303.597 0 .895L22.204 6.03c-.304.298-.608.298-.912 0z"/>
    </g>
</svg>
