<svg xmlns="http://www.w3.org/2000/svg" width="14" height="21" viewBox="0 0 14 21">
    <g fill="#00B8FF" fill-rule="nonzero">
        <path d="M5.185 8.941a2.545 2.545 0 0 0 .004 3.598.607.607 0 1 0 .86-.86 1.33 1.33 0 0 1-.003-1.877.607.607 0 0 0 0-.86.607.607 0 0 0-.861 0z"/>
        <path d="M9.112.751L4.838.747c-.687 0-1.276.496-1.389 1.178l-.508 3.08a1.368 1.368 0 0 1-.437.806A6.598 6.598 0 0 0 .32 10.735a6.627 6.627 0 0 0 2.194 4.929c.233.21.385.498.44.806l.514 3.082c.114.682.704 1.18 1.391 1.18l4.275.005c.687.001 1.276-.496 1.389-1.178l.516-3.088c.051-.306.202-.593.432-.8a6.616 6.616 0 0 0 2.178-4.924 6.65 6.65 0 0 0-2.189-4.929 1.4 1.4 0 0 1-.433-.801l-.523-3.09A1.41 1.41 0 0 0 9.112.751zm.76 12.878a4.077 4.077 0 0 1-5.767-.006A4.077 4.077 0 0 1 4.1 7.855a4.077 4.077 0 0 1 5.768.006 4.08 4.08 0 0 1 .006 5.768z"/>
    </g>
</svg>
